<svg width="32" height="29" viewBox="0 0 32 29" fill="none" xmlns="http://www.w3.org/2000/svg">
<path d="M29.3333 11L26.8575 23.3793C26.552 24.9065 26.3993 25.6702 26.0007 26.2413C25.649 26.745 25.165 27.1417 24.6022 27.3877C23.9638 27.6667 23.1852 27.6667 21.6277 27.6667H10.3723C8.81483 27.6667 8.0361 27.6667 7.39782 27.3877C6.83495 27.1417 6.351 26.745 5.9994 26.2413C5.60068 25.6702 5.44797 24.9065 5.14252 23.3793L2.66667 11M29.3333 11H26M29.3333 11H31M2.66667 11H1M2.66667 11H6M26 11H6M26 11L21 1M6 11L11 1M11 16V21M16 16V21M21 16V21" stroke="black" stroke-width="2" stroke-linecap="round" stroke-linejoin="round"/>
</svg>
