<svg width="21" height="21" viewBox="0 0 21 21" fill="none" xmlns="http://www.w3.org/2000/svg">
<path d="M7.03385 8.31974C6.67882 7.96471 6.67883 7.38911 7.03385 7.03409C7.38886 6.67907 7.96447 6.67907 8.31949 7.03409L10.6719 9.3865L13.0219 7.03647C13.377 6.68146 13.9525 6.68146 14.3075 7.03647C14.6626 7.3915 14.6626 7.9671 14.3075 8.32213L11.9575 10.6721L14.3066 13.0211C14.6616 13.3762 14.6616 13.9518 14.3066 14.3068C13.9515 14.6619 13.376 14.6619 13.0209 14.3068L10.6719 11.9578L8.32213 14.3076C7.96711 14.6626 7.3915 14.6626 7.03648 14.3076C6.68146 13.9525 6.68146 13.377 7.03648 13.0219L9.38624 10.6721L7.03385 8.31974Z" fill="white"/>
<path fill-rule="evenodd" clip-rule="evenodd" d="M20.6666 10.6667C20.6666 16.1896 16.1894 20.6667 10.6666 20.6667C5.14378 20.6667 0.666626 16.1896 0.666626 10.6667C0.666626 5.1439 5.14378 0.666748 10.6666 0.666748C16.1894 0.666748 20.6666 5.1439 20.6666 10.6667ZM2.49102 10.6667C2.49102 15.182 6.15136 18.8424 10.6666 18.8424C15.1819 18.8424 18.8423 15.182 18.8423 10.6667C18.8423 6.15148 15.1819 2.49114 10.6666 2.49114C6.15136 2.49114 2.49102 6.15148 2.49102 10.6667Z" fill="white"/>
</svg>
