<svg width="38" height="38" viewBox="0 0 38 38" fill="none" xmlns="http://www.w3.org/2000/svg">
<path d="M12.233 0.00156214L0 13.5038V38H38V13.5281L27.1811 0.00678002C22.1986 -0.0206142 17.2154 0.0468931 12.2331 0.00156214H12.233ZM14.1242 1.47433H19.952L29.2156 13.0517H24.5457L14.1242 1.47433ZM21.8318 1.47433H26.4756L35.7392 13.0517H31.0952L21.8318 1.47433ZM12.4764 1.83755L23.485 14.067V36.5324H1.46781V14.067L12.4764 1.83755ZM16.2826 10.3707C13.997 10.4696 12.198 11.4562 10.8506 12.7603C9.29312 14.2678 8.36236 16.2135 8.09115 17.5936C7.50084 20.5975 8.89094 22.6373 10.6248 23.3372C10.6264 23.3208 10.6287 23.3229 10.6249 23.3177C10.0128 20.1504 10.9604 17.1287 12.9669 15.1275C11.4514 17.4566 11.2549 20.9026 12.1759 23.6029C12.5661 23.5795 12.9486 23.4841 13.304 23.3215C14.1452 22.936 14.9035 22.1522 15.3764 20.8323C15.8802 19.426 15.4484 17.16 15.2751 15.0069C15.1885 13.9305 15.172 12.8751 15.4294 11.933C15.5879 11.3531 15.8638 10.816 16.2826 10.3707ZM24.9528 14.5192H30.0086V23.4876H24.9528V14.5192ZM31.4764 14.5192H36.5322V23.4876H31.4764V14.5192ZM4.49917 17.9852C3.20684 19.4368 2.72434 21.1188 2.698 22.7238C2.66701 24.6147 3.29515 26.3923 3.97646 27.4069C5.44697 29.5968 7.54186 29.9914 9.02745 29.3881C6.7039 27.8023 5.42968 25.3527 5.43278 22.8781C5.93403 25.248 7.92691 27.4936 10.1555 28.6048C10.383 28.3501 10.5607 28.0551 10.6794 27.7349C10.9573 26.9869 10.9436 26.0464 10.4226 24.9435C9.87258 23.7792 8.20441 22.6388 6.75805 21.4079C6.03482 20.7923 5.36705 20.1446 4.93747 19.392C4.69178 18.9614 4.53407 18.4871 4.49917 17.9852ZM22.1296 21.0333C21.8483 21.4509 21.4751 21.784 21.0467 22.0342C20.2984 22.4712 19.3965 22.6977 18.4625 22.8691C16.5943 23.212 14.5802 23.3652 13.5218 24.0982C12.5192 24.7929 12.0356 25.6012 11.9022 26.3879C11.8452 26.7245 11.8518 27.0688 11.9216 27.403C14.4075 27.555 17.2557 26.6065 18.8748 24.8048C17.6406 26.9494 15.3124 28.4336 12.5078 28.6452C13.4927 29.9105 15.5029 30.6166 17.8711 29.4554C18.9684 28.9174 20.402 27.6919 21.3205 26.0391C22.1003 24.6358 22.5231 22.9367 22.1296 21.0333ZM24.9528 24.9551H30.0086V36.5324H24.9528V24.9551ZM31.4764 24.9551H36.5322V36.5324H31.4764V24.9551ZM10.5166 29.7345C10.2477 31.6139 10.9349 33.405 10.9354 34.7219L12.4032 34.7214C12.4027 32.9843 11.7769 31.2888 11.9696 29.9425C11.615 29.4386 11.2168 29.3638 10.5166 29.7346V29.7345Z" fill="black"/>
</svg>
