<svg width="33" height="38" viewBox="0 0 33 38" fill="none" xmlns="http://www.w3.org/2000/svg">
<path d="M11.2904 24.7837L3.18462 26.5807L0 37.9983H13.9532L15.4142 25.7801L12.952 23.1156L11.2904 24.7837Z" fill="#010002"/>
<path d="M29.6971 26.5807L21.5848 24.7838L19.9199 23.1173L17.4658 25.7818L18.9252 38H32.885L29.6971 26.5807Z" fill="#010002"/>
<path d="M16.4419 12.8558C21.929 12.8558 26.3756 12.3046 26.3756 11.623C26.3756 11.4763 26.131 11.3327 25.7331 11.2023C25.4331 6.17186 25.4641 0 16.4451 0C7.42619 0 7.45393 6.17186 7.15715 11.2007C6.75764 11.3328 6.50977 11.4763 6.50977 11.6231C6.50977 12.3046 10.9598 12.8558 16.4419 12.8558Z" fill="#010002"/>
<path d="M24.7282 13.6026C22.9166 13.8977 20.0875 14.0885 16.8719 14.0885C13.084 14.0885 9.82438 13.8244 8.15625 13.4379C8.7449 18.6656 12.2132 22.7014 16.4561 22.7014C20.6484 22.6982 24.0744 18.7489 24.7282 13.6026Z" fill="#010002"/>
</svg>
