<svg width="39" height="38" viewBox="0 0 39 38" fill="none" xmlns="http://www.w3.org/2000/svg">
<path d="M14.8847 36.9249C15.8862 36.9249 16.6981 36.1488 16.6981 35.1914C16.6981 34.234 15.8862 33.4579 14.8847 33.4579C13.8832 33.4579 13.0713 34.234 13.0713 35.1914C13.0713 36.1488 13.8832 36.9249 14.8847 36.9249Z" fill="#535353"/>
<path d="M3.17375 33.0244C4.50912 33.0244 5.59165 31.9896 5.59165 30.7131C5.59165 29.4366 4.50912 28.4017 3.17375 28.4017C1.83839 28.4017 0.755859 29.4366 0.755859 30.7131C0.755859 31.9896 1.83839 33.0244 3.17375 33.0244Z" fill="#535353"/>
<path d="M35.5331 20.601C36.8685 20.601 37.951 19.5661 37.951 18.2896C37.951 17.0131 36.8685 15.9783 35.5331 15.9783C34.1978 15.9783 33.1152 17.0131 33.1152 18.2896C33.1152 19.5661 34.1978 20.601 35.5331 20.601Z" fill="#535353"/>
<path d="M5.67961 21.1788C7.01498 21.1788 8.09751 20.1439 8.09751 18.8674C8.09751 17.5909 7.01498 16.5561 5.67961 16.5561C4.34425 16.5561 3.26172 17.5909 3.26172 18.8674C3.26172 20.1439 4.34425 21.1788 5.67961 21.1788Z" fill="#535353"/>
<path d="M25.7412 17.2713C26.7427 17.2713 27.5546 16.4952 27.5546 15.5378C27.5546 14.5804 26.7427 13.8043 25.7412 13.8043C24.7396 13.8043 23.9277 14.5804 23.9277 15.5378C23.9277 16.4952 24.7396 17.2713 25.7412 17.2713Z" fill="#535353"/>
<path d="M13.7968 13.8043C14.7983 13.8043 15.6102 13.0282 15.6102 12.0708C15.6102 11.1134 14.7983 10.3373 13.7968 10.3373C12.7953 10.3373 11.9834 11.1134 11.9834 12.0708C11.9834 13.0282 12.7953 13.8043 13.7968 13.8043Z" fill="#535353"/>
<path d="M32.4218 33.0244C33.7572 33.0244 34.8397 31.9896 34.8397 30.7131C34.8397 29.4366 33.7572 28.4017 32.4218 28.4017C31.0864 28.4017 30.0039 29.4366 30.0039 30.7131C30.0039 31.9896 31.0864 33.0244 32.4218 33.0244Z" fill="#535353"/>
<path d="M19.3539 27.6795C21.19 27.6795 22.6785 26.2566 22.6785 24.5014C22.6785 22.7462 21.19 21.3233 19.3539 21.3233C17.5178 21.3233 16.0293 22.7462 16.0293 24.5014C16.0293 26.2566 17.5178 27.6795 19.3539 27.6795Z" fill="#535353"/>
<path d="M3.17348 27.6795C1.42361 27.6795 0 29.0404 0 30.7131C0 32.3859 1.42361 33.7468 3.17348 33.7468C4.92336 33.7468 6.34697 32.3859 6.34697 30.7131C6.34697 29.0404 4.92336 27.6795 3.17348 27.6795ZM3.17348 32.3022C2.25688 32.3022 1.51118 31.5893 1.51118 30.7131C1.51118 29.8369 2.25688 29.1241 3.17348 29.1241C4.09009 29.1241 4.83578 29.8369 4.83578 30.7131C4.83578 31.5893 4.09009 32.3022 3.17348 32.3022Z" fill="black"/>
<path d="M35.5327 21.3232C37.2826 21.3232 38.7062 19.9624 38.7062 18.2896C38.7062 16.6168 37.2826 15.2559 35.5327 15.2559C33.7828 15.2559 32.3592 16.6168 32.3592 18.2896C32.3592 18.4348 32.3706 18.5775 32.3913 18.7173L22.7904 22.4034C22.6299 22.1641 22.4438 21.9419 22.2342 21.742L24.9832 17.8845C25.2229 17.9554 25.4775 17.9937 25.7412 17.9937C27.1578 17.9937 28.3102 16.892 28.3102 15.5379C28.3102 14.1837 27.1578 13.082 25.7412 13.082C24.3246 13.082 23.1722 14.1837 23.1722 15.5379C23.1722 16.1169 23.3834 16.6493 23.7353 17.0696L20.9859 20.9278C20.7083 20.8114 20.4146 20.7241 20.109 20.6691V1.38783C20.109 0.9889 19.7707 0.665527 19.3534 0.665527C18.9362 0.665527 18.5978 0.9889 18.5978 1.38783V20.6691C18.5927 20.67 18.5876 20.6707 18.5824 20.6717L15.4767 13.9264C16.0207 13.4758 16.3659 12.8113 16.3659 12.0708C16.3659 10.7166 15.2135 9.61494 13.7969 9.61494C12.3803 9.61494 11.2279 10.7166 11.2279 12.0708C11.2279 13.4249 12.3803 14.5266 13.7969 14.5266C13.8975 14.5266 13.9966 14.5204 14.0943 14.5096L17.1769 21.2047C16.6993 21.4939 16.288 21.8743 15.9716 22.3213L8.80945 19.3702C8.83809 19.2065 8.85381 19.0387 8.85381 18.8674C8.85381 17.1946 7.4302 15.8337 5.68032 15.8337C3.93045 15.8337 2.50684 17.1946 2.50684 18.8674C2.50684 20.5401 3.93045 21.901 5.68032 21.901C6.71216 21.901 7.6302 21.4275 8.21019 20.6963L15.3729 23.6477C15.3084 23.9226 15.2732 24.208 15.2732 24.5013C15.2732 24.7607 15.3004 25.0141 15.3512 25.2595L11.4343 26.7633C11.0471 26.912 10.8592 27.3326 11.0147 27.7028C11.1331 27.9847 11.4165 28.156 11.7161 28.156C11.8098 28.156 11.9052 28.1393 11.9974 28.1038L15.9164 26.5992C16.2371 27.0777 16.6638 27.4849 17.165 27.7906L15.0948 32.7442C15.0258 32.7389 14.9563 32.7354 14.8858 32.7354C13.4693 32.7354 12.3168 33.8371 12.3168 35.1912C12.3168 36.5454 13.4693 37.647 14.8858 37.647C16.3024 37.647 17.4549 36.5454 17.4549 35.1912C17.4549 34.4202 17.081 33.7315 16.4978 33.281L18.5676 28.3283C18.822 28.376 19.0846 28.4016 19.3534 28.4016C20.6796 28.4016 21.8597 27.7933 22.6054 26.8536L29.3263 30.0482C29.276 30.2623 29.2487 30.4846 29.2487 30.713C29.2487 32.3857 30.6723 33.7466 32.4221 33.7466C34.172 33.7466 35.5956 32.3857 35.5956 30.713C35.5956 29.0402 34.172 27.6793 32.4221 27.6793C31.4523 27.6793 30.5832 28.0978 30.0006 28.7553L23.2795 25.5607C23.3791 25.2236 23.4337 24.8685 23.4337 24.5013C23.4337 24.2418 23.4065 23.9885 23.3557 23.7431L32.9561 20.0572C33.5326 20.8231 34.4724 21.3232 35.5327 21.3232ZM25.7412 14.5266C26.3245 14.5266 26.799 14.9802 26.799 15.5378C26.799 16.0954 26.3245 16.549 25.7412 16.549C25.1579 16.549 24.6834 16.0954 24.6834 15.5378C24.6834 14.9802 25.1579 14.5266 25.7412 14.5266ZM12.7391 12.0708C12.7391 11.5131 13.2136 11.0595 13.7969 11.0595C14.3802 11.0595 14.8547 11.5131 14.8547 12.0708C14.8547 12.6284 14.3802 13.082 13.7969 13.082C13.2136 13.082 12.7391 12.6284 12.7391 12.0708ZM5.68032 20.4565C4.76371 20.4565 4.01802 19.7437 4.01802 18.8674C4.01802 17.9912 4.76371 17.2784 5.68032 17.2784C6.59693 17.2784 7.34262 17.9912 7.34262 18.8674C7.34262 19.7437 6.59693 20.4565 5.68032 20.4565ZM14.8858 36.2026C14.3025 36.2026 13.828 35.749 13.828 35.1914C13.828 34.6338 14.3025 34.1801 14.8858 34.1801C15.4692 34.1801 15.9437 34.6338 15.9437 35.1914C15.9437 35.749 15.4692 36.2026 14.8858 36.2026ZM32.4221 29.1241C33.3387 29.1241 34.0844 29.8369 34.0844 30.7131C34.0844 31.5893 33.3387 32.3022 32.4221 32.3022C31.5055 32.3022 30.7598 31.5893 30.7598 30.7131C30.7598 29.8369 31.5055 29.1241 32.4221 29.1241ZM19.3534 26.9572C17.9368 26.9572 16.7844 25.8555 16.7844 24.5014C16.7844 23.1472 17.9368 22.0455 19.3534 22.0455C20.77 22.0455 21.9224 23.1472 21.9224 24.5014C21.9224 25.8555 20.77 26.9572 19.3534 26.9572ZM35.5327 16.7005C36.4493 16.7005 37.195 17.4134 37.195 18.2896C37.195 19.1658 36.4493 19.8787 35.5327 19.8787C34.6161 19.8787 33.8704 19.1658 33.8704 18.2896C33.8704 17.4134 34.6161 16.7005 35.5327 16.7005Z" fill="black"/>
<path d="M8.57883 27.9258C8.38011 27.9258 8.18517 28.003 8.04471 28.1374C7.90341 28.2717 7.82324 28.4574 7.82324 28.648C7.82324 28.838 7.90341 29.0244 8.04471 29.1587C8.18517 29.2931 8.37943 29.3703 8.57883 29.3703C8.77755 29.3703 8.9725 29.2931 9.11304 29.1587C9.25358 29.0244 9.33443 28.838 9.33443 28.648C9.33443 28.4574 9.25365 28.2717 9.11304 28.1374C8.97242 28.003 8.77748 27.9258 8.57883 27.9258Z" fill="black"/>
</svg>
