<svg width="35" height="34" viewBox="0 0 35 34" fill="none" xmlns="http://www.w3.org/2000/svg">
<g clip-path="url(#clip0_10519_150)">
<path d="M32.2943 23.0204V15.5688H28.2859C28.1501 15.2042 27.9903 14.8406 27.8093 14.4803L30.6473 11.7669L26.4352 7.74033L25.056 7.7877V13.972L23.7709 15.2005C24.5811 16.3762 25.056 17.7814 25.056 19.2946C25.056 21.5849 23.973 23.632 22.272 24.9988V25.1494H22.0727C20.747 26.1463 19.0788 26.7462 17.2609 26.7462C15.443 26.7462 13.7748 26.1463 12.4491 25.1494H12.2498V24.9988C10.5488 23.632 9.46583 21.5849 9.46583 19.2946C9.46583 17.8303 9.91405 16.4694 10.6769 15.3176L8.55603 13.5435C8.07274 13.1396 7.79546 12.5551 7.79546 11.9414V8.38223L7.40181 8.39554L3.87509 11.7669L6.71305 14.4803C6.5321 14.8406 6.3723 15.2042 6.23644 15.5688H2.22754V23.0204H6.23588C6.37174 23.3839 6.53098 23.7475 6.7125 24.1083L3.87453 26.8223L9.38565 32.0906L12.2247 29.3777C12.6022 29.5512 12.9825 29.7034 13.3628 29.8333V33.6656H21.1579V29.8338C21.5382 29.704 21.9185 29.5517 22.296 29.3782L25.1351 32.0911L30.6462 26.8228L27.8082 24.1089C27.9897 23.748 28.149 23.3845 28.2848 23.0209H32.2943V23.0204Z" fill="black"/>
<path d="M33.4075 4.92359C34.0216 4.92359 34.5211 4.44616 34.5211 3.85908V1.72791L34.275 1.5693C33.3557 0.977963 32.285 0.665527 31.1803 0.665527C29.1737 0.665527 27.3585 1.67682 26.3635 3.32682H25.6124C25.6124 2.15266 24.6135 1.19779 23.3853 1.19779C22.7171 1.19779 22.1236 1.48627 21.7149 1.93337C21.3062 1.48627 20.7127 1.19779 20.0445 1.19779C19.3764 1.19779 18.7828 1.48627 18.3741 1.93337C17.9654 1.48627 17.3719 1.19779 16.7038 1.19779C16.0356 1.19779 15.4421 1.48627 15.0334 1.93337C14.6247 1.48627 14.0312 1.19779 13.363 1.19779C12.1347 1.19779 11.1358 2.15266 11.1358 3.32682H8.15756C7.16257 1.67682 5.34743 0.665527 3.34075 0.665527C2.23608 0.665527 1.16537 0.977963 0.246102 1.5693L0 1.72791V3.85908C0 4.44616 0.499442 4.92359 1.11358 4.92359H3.89754V7.05262H1.11358C0.499442 7.05262 0 7.53006 0 8.11714V10.2483L0.246102 10.4069C1.16537 10.9983 2.23608 11.3107 3.34075 11.3107C4.83574 11.3107 6.21602 10.7406 7.23829 9.77246V11.9414C7.23829 12.7084 7.58517 13.4387 8.18929 13.9448L9.95933 15.4256C9.27392 16.6045 8.90867 17.9352 8.90867 19.2946C8.90867 23.6969 12.6553 27.2784 17.2605 27.2784C21.8658 27.2784 25.6124 23.6969 25.6124 19.2946C25.6124 17.8692 25.2216 16.4928 24.4777 15.2771L25.6124 14.1923V9.71391V8.6494H26.3635C27.3585 10.2994 29.1737 11.3107 31.1803 11.3107C32.285 11.3107 33.3557 10.9983 34.275 10.4069L34.5211 10.2483V8.11714C34.5211 7.53006 34.0216 7.05262 33.4075 7.05262H30.6235V4.92359H33.4075ZM23.3853 2.2623C23.9994 2.2623 24.4988 2.73974 24.4988 3.32682V3.85908V9.71391C24.4988 10.301 23.9994 10.7784 23.3853 10.7784C22.7711 10.7784 22.2717 10.301 22.2717 9.71391V3.32682C22.2717 2.73974 22.7711 2.2623 23.3853 2.2623ZM20.0445 2.2623C20.6586 2.2623 21.1581 2.73974 21.1581 3.32682V9.71391C21.1581 10.301 20.6586 10.7784 20.0445 10.7784C19.4304 10.7784 18.9309 10.301 18.9309 9.71391V3.32682C18.9309 2.73974 19.4304 2.2623 20.0445 2.2623ZM16.7038 2.2623C17.3179 2.2623 17.8173 2.73974 17.8173 3.32682V9.71391C17.8173 10.301 17.3179 10.7784 16.7038 10.7784C16.0896 10.7784 15.5902 10.301 15.5902 9.71391V3.32682C15.5902 2.73974 16.0896 2.2623 16.7038 2.2623ZM12.2494 3.32682C12.2494 2.73974 12.7489 2.2623 13.363 2.2623C13.9771 2.2623 14.4766 2.73974 14.4766 3.32682V9.71391C14.4766 10.178 14.162 10.5799 13.7177 10.7225L12.2494 9.47493V7.31875V3.32682ZM3.34075 10.2462C2.55456 10.2462 1.79064 10.0482 1.11358 9.6708V8.11714H5.01113V3.85908H1.11358V2.30541C1.79064 1.92804 2.55456 1.73004 3.34075 1.73004C5.03897 1.73004 6.56625 2.63648 7.32627 4.09593L7.47994 4.39133H11.1358V5.32917C10.7372 5.07369 10.2589 4.92359 9.74386 4.92359C8.36246 4.92359 7.23829 5.99822 7.23829 7.31875V8.02346C6.45433 9.39563 4.9805 10.2462 3.34075 10.2462ZM10.0223 19.2946C10.0223 18.1928 10.2956 17.1123 10.8157 16.1415L11.6926 16.8749V23.7096C10.6503 22.5105 10.0223 20.9717 10.0223 19.2946ZM24.4988 19.2946C24.4988 20.9717 23.8708 22.5105 22.8285 23.7096V16.8536L23.657 16.0616C24.2065 17.0532 24.4988 18.1545 24.4988 19.2946ZM21.7149 16.4129V21.4236H20.6013V22.4881H21.7149V24.7374C20.4849 25.6588 18.9409 26.2139 17.2605 26.2139C15.5801 26.2139 14.0362 25.6588 12.8062 24.7374V22.4881H19.4877V21.4236H12.8062V16.3916L8.92259 13.1427C8.56012 12.8399 8.35188 12.4018 8.35188 11.9414V7.31875C8.35188 6.58477 8.9766 5.98811 9.74386 5.98811C10.5111 5.98811 11.1358 6.58477 11.1358 7.31875V9.71391V9.9529L16.3335 14.3696L17.0735 13.5744L14.6013 11.4736C14.7622 11.3698 14.912 11.2527 15.0389 11.1138C15.4476 11.5571 16.0384 11.8429 16.7038 11.8429C17.3719 11.8429 17.9654 11.5545 18.3741 11.1074C18.7828 11.5545 19.3764 11.8429 20.0445 11.8429C20.7127 11.8429 21.3062 11.5545 21.7149 11.1074C22.1236 11.5545 22.7171 11.8429 23.3853 11.8429C23.7928 11.8429 24.1698 11.7301 24.4988 11.547V13.7516L21.7149 16.4129ZM33.4075 8.11714V9.6708C32.7304 10.0482 31.9665 10.2462 31.1803 10.2462C29.4821 10.2462 27.9548 9.33974 27.1948 7.88029L27.0412 7.58488H25.6124V4.39133H27.0412L27.1948 4.09593C27.9548 2.63648 29.4821 1.73004 31.1803 1.73004C31.9665 1.73004 32.7304 1.92804 33.4075 2.30541V3.85908H29.51V8.11714H33.4075Z" fill="#535353"/>
</g>
<defs>
<clipPath id="clip0_10519_150">
<rect width="34.5211" height="33" fill="white" transform="translate(0 0.665527)"/>
</clipPath>
</defs>
</svg>
