<svg width="41" height="24" viewBox="0 0 41 24" fill="none" xmlns="http://www.w3.org/2000/svg">
<path d="M14.9865 18.6859H25.8779C26.1912 18.6859 26.4917 18.5615 26.7132 18.34C26.9347 18.1184 27.0592 17.818 27.0592 17.5047L31.1725 2.44375C31.1725 2.28744 31.1415 2.13268 31.0812 1.98844C31.021 1.8442 30.9327 1.71335 30.8215 1.60347C30.7103 1.4936 30.5785 1.40688 30.4335 1.34835C30.2886 1.28982 30.1335 1.26064 29.9771 1.2625H12.1248C11.8109 1.2625 11.5097 1.38673 11.287 1.60805C11.0644 1.82938 10.9384 2.12982 10.9365 2.44375L7.4209 17.5047C7.4209 17.818 7.54535 18.1184 7.76688 18.34C7.98841 18.5615 8.28886 18.6859 8.60215 18.6859H10.135" stroke="black" stroke-width="2.10938"/>
<path d="M29.0355 18.6859H26.5957L30.1113 6.52887H35.891C35.978 6.52867 36.0639 6.54745 36.1428 6.58388C36.2218 6.62031 36.2918 6.67352 36.348 6.73981L38.8652 11.1695C38.9554 11.2727 39.0054 11.4051 39.0059 11.5422L36.6645 18.6859H34.1332" stroke="black" stroke-width="2.10938"/>
<path d="M12.6174 22.0961C14.0581 22.0961 15.226 20.9124 15.226 19.4523C15.226 17.9922 14.0581 16.8086 12.6174 16.8086C11.1767 16.8086 10.0088 17.9922 10.0088 19.4523C10.0088 20.9124 11.1767 22.0961 12.6174 22.0961Z" stroke="black" stroke-width="2.10938"/>
<path d="M31.6291 22.0961C33.0698 22.0961 34.2377 20.9124 34.2377 19.4523C34.2377 17.9922 33.0698 16.8086 31.6291 16.8086C30.1884 16.8086 29.0205 17.9922 29.0205 19.4523C29.0205 20.9124 30.1884 22.0961 31.6291 22.0961Z" stroke="black" stroke-width="2.10938"/>
<path d="M16.0904 4.72186H4.57324" stroke="black" stroke-width="2.10938" stroke-linecap="round"/>
<path d="M13.8197 8.40622H5.68457" stroke="black" stroke-width="2.10938" stroke-linecap="round"/>
<path d="M14.6422 12.5547H2" stroke="black" stroke-width="2.10938" stroke-linecap="round"/>
</svg>
