<svg width="16" height="16" viewBox="0 0 16 16" fill="none" xmlns="http://www.w3.org/2000/svg">
<path d="M1 2.54156C1 2.13272 1.16389 1.74061 1.45561 1.45151C1.74733 1.16241 2.143 1 2.55556 1H5.10667C5.26984 1.00012 5.42884 1.0511 5.56117 1.14571C5.69349 1.24033 5.79244 1.37379 5.844 1.52721L7.00911 4.99032C7.06814 5.16632 7.06116 5.35751 6.98944 5.52883C6.91773 5.70013 6.78608 5.84007 6.61867 5.92296L4.86322 6.79394C5.72369 8.68122 7.24902 10.1928 9.15344 11.0456L10.0323 9.30591C10.116 9.13999 10.2572 9.00953 10.4301 8.93843C10.6029 8.86742 10.7959 8.8605 10.9734 8.91897L14.468 10.0736C14.6229 10.1248 14.7577 10.2229 14.8532 10.3542C14.9487 10.4855 15 10.6432 15 10.8051V13.3324C15 13.7413 14.8361 14.1334 14.5444 14.4225C14.2527 14.7116 13.857 14.874 13.4444 14.874H12.6667C6.22356 14.874 1 9.69744 1 3.31234V2.54156Z" stroke="#F3A800" stroke-width="2" stroke-linecap="round" stroke-linejoin="round"/>
</svg>
